<svg width="139" height="139" viewBox="0 0 139 139" fill="none" xmlns="http://www.w3.org/2000/svg">
<path d="M69.5 0C31.1206 0 0 31.1206 0 69.5C0 107.879 31.1206 139 69.5 139C107.879 139 139 107.879 139 69.5C139 31.1206 107.879 0 69.5 0Z" fill="white"/>
<path d="M115.216 80.678H116.992V80.9869H116.277V82.4927H115.93V80.9869H115.216V80.678ZM32.3176 87.6666H28.3213C27.414 87.6666 26.9699 87.1646 26.9699 86.18V84.597C26.9699 84.153 27.0858 83.7862 27.3367 83.4773C27.5684 83.1877 27.8966 83.0332 28.3213 83.0332H31.4681C32.2017 83.0332 32.7037 83.3807 32.9353 84.1143L33.3794 85.6395H36.2559V83.9599C36.2559 82.8402 35.8891 81.9135 35.1362 81.1606C34.364 80.4077 33.4373 80.0409 32.3369 80.0409H27.6842C26.5838 80.0409 25.6378 80.427 24.8463 81.2185C24.0741 81.9907 23.688 82.9174 23.688 84.0178V86.7206C23.688 87.821 24.0741 88.767 24.8463 89.5585C25.6378 90.3307 26.5838 90.7169 27.6842 90.7169H31.6805C32.5685 90.7169 33.0126 91.2381 33.0126 92.242V94.2884C33.0126 94.7324 32.8967 95.0992 32.6458 95.3888C32.3948 95.6977 32.0666 95.8328 31.6805 95.8328H28.4951C27.6842 95.8328 27.2016 95.466 27.0085 94.7517L26.5838 93.0335H23.688V94.9062C23.688 96.0452 24.0548 96.9719 24.8077 97.7055C25.5606 98.4584 26.4873 98.8252 27.607 98.8252H32.3176C33.418 98.8252 34.364 98.4391 35.1362 97.6475C35.9084 96.8753 36.2752 95.9293 36.2752 94.8289V91.6435C36.2752 90.5624 35.8891 89.6164 35.1169 88.8249C34.3447 88.0334 33.3987 87.6473 32.3176 87.6473M51.5073 81.2185C52.2795 81.9907 52.6656 82.9174 52.6656 83.9985V87.9368C52.6656 89.0373 52.2795 89.9832 51.5073 90.7555C50.7158 91.5277 49.7698 91.9331 48.6694 91.9331H43.4955V98.8252H40.1749V80.0602H48.6694C49.7698 80.0602 50.7158 80.4463 51.5073 81.2378M49.3451 84.6356C49.3451 84.1723 49.2099 83.8248 48.959 83.5352C48.708 83.2456 48.3798 83.1105 47.9937 83.1105H43.4762V88.9407H47.9937C48.3798 88.9407 48.708 88.7863 48.959 88.4967C49.2099 88.2071 49.3451 87.8403 49.3451 87.3963V84.6549V84.6356ZM82.3769 91.0837L85.6588 98.8445H82.1259L79.0756 91.4891H75.9288V98.8445H72.6083V80.0795H80.9097C82.0294 80.0795 82.956 80.4656 83.7283 81.2571C84.5005 82.0294 84.9059 82.956 84.9059 84.0371V87.3191C84.9059 88.1685 84.6742 88.9407 84.2109 89.6357C83.7283 90.3114 83.1105 90.7941 82.3769 91.1223M81.5853 84.6742C81.5853 84.2302 81.4695 83.8634 81.2379 83.5738C81.0062 83.2842 80.678 83.1491 80.2919 83.1491H75.9481V88.516H80.2919C80.678 88.516 80.9869 88.3809 81.2379 88.0913C81.4695 87.8017 81.5853 87.4349 81.5853 86.9909V84.6742ZM87.0102 83.1298H91.7787V98.8638H95.0992V83.1298H99.9256V80.0988H87.0102V83.1298ZM110.968 87.7052H106.972C106.084 87.7052 105.64 87.2032 105.64 86.2187V84.6356C105.64 84.1916 105.756 83.8248 106.007 83.5159C106.239 83.2263 106.586 83.0718 106.991 83.0718H110.138C110.872 83.0718 111.374 83.4194 111.605 84.153L112.03 85.6781H114.907V83.9985C114.907 82.8788 114.521 81.9521 113.768 81.1992C112.995 80.4463 112.069 80.0795 110.968 80.0795H106.335C105.235 80.0795 104.269 80.4656 103.516 81.2571C102.744 82.0294 102.339 82.956 102.339 84.0564V86.7592C102.339 87.8596 102.744 88.8056 103.516 89.5971C104.289 90.3693 105.235 90.7555 106.335 90.7555H110.331C111.219 90.7555 111.663 91.2767 111.663 92.2806V94.327C111.663 94.771 111.548 95.1378 111.316 95.4274C111.065 95.7363 110.737 95.8714 110.331 95.8714H107.146C106.354 95.8714 105.852 95.5046 105.659 94.7903L105.235 93.0721H102.339V94.9448C102.339 96.0838 102.725 97.0105 103.459 97.7441C104.231 98.497 105.138 98.8638 106.258 98.8638H110.949C112.069 98.8638 112.995 98.4777 113.787 97.6862C114.559 96.9139 114.945 95.968 114.945 94.8675V91.6821C114.945 90.601 114.559 89.655 113.748 88.8635C112.976 88.072 112.03 87.6859 110.949 87.6859M119.135 80.6973L118.42 81.7977L117.706 80.6973H117.397V82.512H117.706V81.3923C117.706 81.3923 117.667 81.2764 117.667 81.1992C117.706 81.2571 117.745 81.3344 117.783 81.373L118.382 82.2803H118.44L119.019 81.3923C119.019 81.3923 119.077 81.2764 119.096 81.1992C119.096 81.2957 119.096 81.3537 119.096 81.3923V82.512H119.424V80.6973H119.154H119.135ZM67.3765 81.2378C68.168 81.9907 68.5541 82.956 68.5541 84.0371V94.8289C68.5541 95.968 68.168 96.9139 67.3765 97.6862C66.5849 98.4777 65.6776 98.8638 64.5578 98.8638H60.079C58.9592 98.8638 58.0133 98.4777 57.241 97.6862C56.4688 96.9139 56.0634 95.968 56.0634 94.8289V84.0371C56.0634 82.956 56.4688 82.01 57.241 81.2571C58.0133 80.4656 58.9592 80.0795 60.079 80.0795H64.5578C65.6776 80.0795 66.6042 80.4656 67.3765 81.2378ZM65.2528 84.6549C65.2528 84.2109 65.137 83.8441 64.8667 83.5545C64.6158 83.2649 64.3069 83.1298 63.9208 83.1298H60.7353C60.3106 83.1298 60.0017 83.2649 59.7508 83.5545C59.5191 83.8441 59.4033 84.2109 59.4033 84.6549V94.2691C59.4033 94.7131 59.5191 95.0606 59.7508 95.3695C60.0017 95.6784 60.3106 95.8328 60.7353 95.8328H63.9208C64.3069 95.8328 64.6351 95.6784 64.8667 95.3695C65.1177 95.0799 65.2528 94.7131 65.2528 94.2691V84.6549ZM79.2494 32.1824H43.5148L38.0513 40.8699H73.7666L79.2494 32.1824ZM92.7826 58.2256H87.4156L81.9135 66.9324H98.2654L103.748 75.6199H114.173L86.5276 31.8928L64.3262 66.9517H40.0398L45.6191 58.2642H60.716L66.2181 49.5767H32.5685L27.0665 58.2642H35.1362L24.132 75.6392H69.3842L86.5469 48.3605L92.7826 58.2256Z" fill="black"/>
</svg>
